<svg width="50" height="50" viewBox="0 0 50 50" fill="#ff0c55" stroke="none" xmlns="http://www.w3.org/2000/svg">
<path d="M0.625 25C0.625 18.5353 3.19307 12.3355 7.76427 7.76427C12.3355 3.19307 18.5353 0.625 25 0.625C31.4647 0.625 37.6645 3.19307 42.2357 7.76427C46.8069 12.3355 49.375 18.5353 49.375 25C49.375 31.4647 46.8069 37.6645 42.2357 42.2357C37.6645 46.8069 31.4647 49.375 25 49.375C18.5353 49.375 12.3355 46.8069 7.76427 42.2357C3.19307 37.6645 0.625 31.4647 0.625 25ZM16.1613 6.3625C13.4255 7.6635 11.0086 9.54912 9.08125 11.8862L11.5075 19.7762L15.28 21.0325L23.125 15.07V11.005L16.1613 6.3625ZM4.51 27.3775C4.885 30.6212 6.01 33.64 7.70875 36.2462H14.8488L17.23 33.865L14.1438 24.6025L10.3037 23.3237L4.51 27.3775ZM20.8225 45.1975C23.5786 45.7648 26.4214 45.7648 29.1775 45.1975L32.14 38.5375L29.8488 36.25H20.1512L17.8638 38.5375L20.8225 45.2013V45.1975ZM42.2875 36.25C43.9375 33.7225 45.0475 30.8125 45.4525 27.6813L39.6625 23.3388L35.8563 24.6062L32.77 33.8687L35.1512 36.25H42.2875ZM40.87 11.8262C38.9508 9.51513 36.5515 7.64945 33.8388 6.35875L26.875 11.005V15.07L34.72 21.0325L38.485 19.78L40.87 11.8262Z"/>
</svg>
