<svg width="42" height="34" viewBox="0 0 42 34" fill="none" xmlns="http://www.w3.org/2000/svg">
<path d="M4.33317 0.333317L8.49984 8.66665H14.7498L10.5832 0.333317H14.7498L18.9165 8.66665H25.1665L20.9998 0.333317H25.1665L29.3332 8.66665H35.5832L31.4165 0.333317H37.6665C38.8123 0.333317 39.7936 0.741649 40.6103 1.55832C41.4269 2.37498 41.8346 3.35554 41.8332 4.49998V29.5C41.8332 30.6458 41.4248 31.6271 40.6082 32.4437C39.7915 33.2604 38.811 33.668 37.6665 33.6666H4.33317C3.18734 33.6666 2.20609 33.2583 1.38942 32.4417C0.572757 31.625 0.165119 30.6444 0.166507 29.5V4.49998C0.166507 3.35415 0.574841 2.3729 1.39151 1.55623C2.20817 0.739566 3.18873 0.331928 4.33317 0.333317Z" fill="white"/>
</svg>
