<svg width="25" height="25" viewBox="0 0 25 25" fill="none" xmlns="http://www.w3.org/2000/svg">
<path d="M23 12.5C23 13.3284 22.3284 14 21.5 14H18.5C16.0147 14 14 16.0147 14 18.5V21.5C14 22.3284 13.3284 23 12.5 23C11.6716 23 11 22.3284 11 21.5V18.5C11 16.0147 8.98528 14 6.5 14H3.5C2.67157 14 2 13.3284 2 12.5C2 11.6716 2.67157 11 3.5 11H6.5C8.98528 11 11 8.98528 11 6.5V3.5C11 2.67157 11.6716 2 12.5 2C13.3284 2 14 2.67157 14 3.5V6.5C14 8.98528 16.0147 11 18.5 11H21.5C22.3284 11 23 11.6716 23 12.5Z" fill="white" stroke="white" stroke-width="3"/>
</svg>
