<svg width="24" height="24" viewBox="0 0 24 24" fill="none" xmlns="http://www.w3.org/2000/svg">
<path d="M17.7752 7.25627C18.4521 7.25627 19.1012 6.98739 19.5798 6.50878C20.0584 6.03017 20.3273 5.38104 20.3273 4.70418C20.3273 4.02733 20.0584 3.3782 19.5798 2.89959C19.1012 2.42098 18.4521 2.1521 17.7752 2.1521C17.0984 2.1521 16.4492 2.42098 15.9706 2.89959C15.492 3.3782 15.2231 4.02733 15.2231 4.70418C15.2231 5.38104 15.492 6.03017 15.9706 6.50878C16.4492 6.98739 17.0984 7.25627 17.7752 7.25627Z" stroke="white" stroke-width="2.5"/>
<path d="M5.52514 8.15975L9.61 6.74487L15.2231 9.42405L9.61 13.6079L15.2231 17.3034L11.6542 22.0574M17.4281 10.647L18.797 11.3917L21.8585 8.515M8.00015 15.7012L6.48421 17.6979L1.44385 20.5256" stroke="white" stroke-width="2.5" stroke-linecap="round" stroke-linejoin="round"/>
</svg>
