<svg width="42" height="47" viewBox="0 0 42 47" fill="#ff0c55" stroke="none" xmlns="http://www.w3.org/2000/svg">
<path d="M3.13525 40.6666L0.166504 37.75L8.70817 29.2083C9.78456 28.1319 10.5228 26.7861 10.9228 25.1708C11.3228 23.5555 11.5221 21.0819 11.5207 17.75C11.5207 15.7361 11.9721 13.7569 12.8748 11.8125C13.7776 9.86803 15.0623 8.06248 16.729 6.39581C19.8887 3.23609 23.3783 1.4479 27.1978 1.03123C31.0172 0.614562 34.1596 1.67359 36.6248 4.20831C39.1248 6.70831 40.1665 9.86803 39.7498 13.6875C39.3332 17.5069 37.5623 20.9791 34.4373 24.1041C32.7707 25.7708 30.9651 27.0555 29.0207 27.9583C27.0762 28.8611 25.0971 29.3125 23.0832 29.3125C19.7151 29.3125 17.2498 29.5034 15.6873 29.8854C14.1248 30.2673 12.788 31.0139 11.6769 32.125L3.13525 40.6666ZM17.4582 23.2708C19.0901 24.868 21.295 25.4583 24.0728 25.0416C26.8505 24.625 29.3332 23.3229 31.5207 21.1354C33.7429 18.9132 35.0714 16.4215 35.5061 13.6604C35.9408 10.8993 35.3415 8.73817 33.7082 7.17706C32.0415 5.51039 29.8623 4.88539 27.1707 5.30206C24.479 5.71873 22.0054 7.03817 19.7498 9.26039C17.5623 11.4479 16.2339 13.9222 15.7644 16.6833C15.295 19.4444 15.8596 21.6403 17.4582 23.2708ZM33.4998 46.9166C31.2082 46.9166 29.2464 46.1007 27.6144 44.4687C25.9825 42.8368 25.1665 40.875 25.1665 38.5833C25.1665 36.2916 25.9825 34.3298 27.6144 32.6979C29.2464 31.0659 31.2082 30.25 33.4998 30.25C35.7915 30.25 37.7533 31.0659 39.3853 32.6979C41.0172 34.3298 41.8332 36.2916 41.8332 38.5833C41.8332 40.875 41.0172 42.8368 39.3853 44.4687C37.7533 46.1007 35.7915 46.9166 33.4998 46.9166Z"/>
</svg>
