<svg width="28" height="20" viewBox="0 0 28 20" fill="#ff0c55" xmlns="http://www.w3.org/2000/svg">
<path d="M9.19071 14.7596C9.95969 16.3939 11.1089 17.9563 12.6122 19.4109C9.46104 18.9378 6.84093 17.0145 5.41801 14.3545L9.19065 14.7596H9.19071ZM12.555 0.106722C9.4851 0.587761 6.92872 2.44272 5.49872 5.01069L9.1916 4.64699C9.95109 3.04562 11.0829 1.52147 12.555 0.106693L12.555 0.106722ZM13.7129 4.69562L13.7641 0H13.7537C12.102 1.44165 10.8451 3.00228 10.0075 4.65401L13.7128 4.69573L13.7129 4.69562ZM5.73714 6.15373L5.05494 6.14766L4.38052 6.13891L4.32757 11.016L1.597 6.10939L0.0746104 6.09284L0 13.033L0.678744 13.0425L1.35401 13.0486L1.40784 8.04569L4.21746 13.0799L5.66351 13.0964L5.73729 6.15361L5.73714 6.15373ZM12.2269 7.45657L12.233 6.83777L12.2408 6.22325L7.13022 6.16857L7.05561 13.1114L12.325 13.1669L12.3319 12.5498L12.338 11.9344L8.51982 11.8936L8.5389 10.0822L11.9335 10.1186L11.9396 9.52319L11.9457 8.92429L8.55104 8.88867L8.56759 7.41658L12.2269 7.45649V7.45657ZM19.1549 11.338L18.2037 6.28822L16.6596 6.26994L15.6137 11.3415L14.5079 6.24825L13.0002 6.2309L14.8577 13.1945L15.546 13.2014L16.236 13.2102L17.3843 7.75421L18.4406 13.2328L19.1332 13.2423L19.8206 13.2492L21.8273 6.32723L20.3613 6.31158L19.1549 11.338L19.1549 11.338ZM14.5097 0.00860368H14.4992L14.4489 4.70339L18.1569 4.74249C17.3532 3.07252 16.1311 1.48588 14.5097 0.00860368H14.5097ZM22.4289 4.78761C20.8857 2.21181 18.2523 0.425449 15.1828 0.0628996C17.1491 1.58566 18.247 3.13326 18.9735 4.75109L22.4289 4.78752L22.4289 4.78761ZM15.2352 19.4387C18.3847 19.0351 21.0299 17.1815 22.5129 14.5795L18.7566 14.8628C17.952 16.4798 16.7681 18.0161 15.2353 19.4387L15.2352 19.4387ZM17.9346 14.8542L14.3404 14.8151L14.2917 19.299C15.8732 17.9215 17.0961 16.426 17.9345 14.8541L17.9346 14.8542ZM27.5064 9.98144C27.168 9.68199 26.4978 9.41296 25.4901 9.17943C24.7958 9.0128 24.3419 8.8765 24.1301 8.7585C23.9139 8.64476 23.8054 8.48247 23.8081 8.27335C23.8098 7.98782 23.9166 7.75602 24.1275 7.59716C24.3349 7.44351 24.6248 7.36456 24.992 7.36974C25.4173 7.37322 25.7609 7.47568 26.024 7.66918C26.2852 7.8645 26.4268 8.12574 26.4476 8.45733L27.8597 8.47468C27.8146 7.77599 27.5498 7.22391 27.0655 6.80905C26.5838 6.39416 25.9519 6.18328 25.1743 6.17545C24.3445 6.16593 23.6823 6.35773 23.1902 6.7431C22.6989 7.13287 22.4498 7.67094 22.4428 8.34105C22.4367 8.94257 22.6156 9.38695 22.9792 9.67595C23.3481 9.96323 24.0823 10.2375 25.1795 10.4936C25.7767 10.6324 26.1647 10.7687 26.3469 10.8902C26.5309 11.0153 26.6229 11.2061 26.6203 11.4701C26.6177 11.7347 26.4849 11.9379 26.2237 12.0854C25.9616 12.2313 25.6013 12.3024 25.137 12.2972C24.6882 12.292 24.3367 12.1904 24.0885 11.9882C23.8368 11.7894 23.7083 11.5074 23.6962 11.135L22.2997 11.1203C22.3249 11.8702 22.5844 12.45 23.0739 12.8614C23.5643 13.2763 24.2492 13.4855 25.1249 13.4941C26.0023 13.5029 26.6959 13.3231 27.2132 12.943C27.7322 12.5646 27.9926 12.0516 27.9995 11.3989C28.01 10.7514 27.8433 10.2774 27.5065 9.98147L27.5064 9.98144ZM13.5566 19.2868L13.6052 14.8082L10.011 14.7691C10.8182 16.3574 12.0064 17.8781 13.5566 19.2868L13.5566 19.2868Z"/>
</svg>
