<svg width="42" height="42" viewBox="0 0 42 42" fill="#ff0c55" stroke="#ff0c55" xmlns="http://www.w3.org/2000/svg">
<path d="M0.270996 18.8646C0.444607 17.0937 0.809191 15.4187 1.36475 13.8396C1.9203 12.2604 2.68419 10.7757 3.65641 9.3854C4.87169 10.6354 5.88766 12.0854 6.70433 13.7354C7.521 15.3854 8.05016 17.0951 8.29183 18.8646H0.270996ZM33.7085 18.8646C33.9516 17.0937 34.4724 15.3923 35.271 13.7604C36.0696 12.1285 37.0939 10.6875 38.3439 9.43748C39.3161 10.7916 40.08 12.2673 40.6356 13.8646C41.1911 15.4618 41.5557 17.1285 41.7293 18.8646H33.7085ZM3.65641 32.5625C2.68419 31.2083 1.9203 29.741 1.36475 28.1604C0.809191 26.5798 0.444607 24.9048 0.270996 23.1354H8.29183C8.04877 24.9062 7.51891 26.6076 6.70225 28.2396C5.88558 29.8715 4.871 31.3125 3.6585 32.5625H3.65641ZM38.3439 32.5625C37.0939 31.3125 36.0696 29.8715 35.271 28.2396C34.4724 26.6076 33.9516 24.9062 33.7085 23.1354H41.7293C41.5557 24.8715 41.1911 26.5382 40.6356 28.1354C40.08 29.7326 39.3161 31.2083 38.3439 32.5625ZM12.5106 18.8646C12.2328 16.3646 11.5557 14.0555 10.4793 11.9375C9.40294 9.81942 7.99669 7.9097 6.26058 6.20831C7.92725 4.54165 9.82863 3.20484 11.9647 2.1979C14.1009 1.19095 16.4009 0.548591 18.8647 0.270813V18.8646H12.5106ZM23.1356 18.8646V0.270813C25.6009 0.548591 27.9015 1.19095 30.0377 2.1979C32.1738 3.20484 34.0745 4.54165 35.7397 6.20831C33.9689 7.87498 32.5536 9.77637 31.4939 11.9125C30.4342 14.0486 29.7661 16.366 29.4897 18.8646H23.1356ZM18.8647 41.7291C16.3647 41.4514 14.0557 40.8007 11.9377 39.7771C9.81961 38.7535 7.92725 37.4076 6.26058 35.7396C8.03141 34.0729 9.44669 32.1805 10.5064 30.0625C11.5661 27.9444 12.2342 25.6354 12.5106 23.1354H18.8647V41.7291ZM23.1356 41.7291V23.1354H29.4897C29.7675 25.6354 30.4363 27.9535 31.496 30.0896C32.5557 32.2257 33.9703 34.1264 35.7397 35.7916C34.0731 37.4583 32.1717 38.7951 30.0356 39.8021C27.8995 40.809 25.5995 41.4514 23.1356 41.7291Z"/>
</svg>
