<svg width="42" height="30" viewBox="0 0 42 30" fill="#ff0c55" stroke="#ff0c55" xmlns="http://www.w3.org/2000/svg">
<path d="M5.479 29.5833C3.70817 29.5833 2.33664 28.9666 1.36442 27.7333C0.392198 26.5 0.027615 24.9986 0.270671 23.2291L2.45817 7.60413C2.77067 5.52079 3.69984 3.80204 5.24567 2.44788C6.7915 1.09371 8.60539 0.416626 10.6873 0.416626H31.3123C33.3957 0.416626 35.2103 1.09371 36.7561 2.44788C38.3019 3.80204 39.2304 5.52079 39.5415 7.60413L41.729 23.2291C41.9721 25 41.6075 26.502 40.6353 27.7354C39.663 28.9687 38.2915 29.5847 36.5207 29.5833C35.7915 29.5833 35.1144 29.4527 34.4894 29.1916C33.8644 28.9305 33.2915 28.5402 32.7707 28.0208L28.0832 23.3333H13.9165L9.229 28.0208C8.70817 28.5416 8.13525 28.9326 7.51025 29.1937C6.88525 29.4548 6.20817 29.5847 5.479 29.5833ZM31.4165 17.0833C32.0068 17.0833 32.5019 16.8833 32.9019 16.4833C33.3019 16.0833 33.5012 15.5888 33.4998 15C33.4998 14.4097 33.2998 13.9145 32.8998 13.5145C32.4998 13.1145 32.0054 12.9152 31.4165 12.9166C30.8262 12.9166 30.3311 13.1166 29.9311 13.5166C29.5311 13.9166 29.3318 14.4111 29.3332 15C29.3332 15.5902 29.5332 16.0854 29.9332 16.4854C30.3332 16.8854 30.8276 17.0847 31.4165 17.0833ZM27.2498 10.8333C27.8401 10.8333 28.3353 10.6333 28.7353 10.2333C29.1353 9.83329 29.3346 9.33885 29.3332 8.74996C29.3332 8.15968 29.1332 7.66454 28.7332 7.26454C28.3332 6.86454 27.8387 6.66524 27.2498 6.66663C26.6596 6.66663 26.1644 6.86663 25.7644 7.26663C25.3644 7.66663 25.1651 8.16107 25.1665 8.74996C25.1665 9.34024 25.3665 9.83538 25.7665 10.2354C26.1665 10.6354 26.6609 10.8347 27.2498 10.8333ZM12.1457 17.0833H15.2707V13.4375H18.9165V10.3125H15.2707V6.66663H12.1457V10.3125H8.49984V13.4375H12.1457V17.0833Z"/>
</svg>
