<svg width="20" height="19" viewBox="0 0 20 19" fill="#ff0c55" xmlns="http://www.w3.org/2000/svg">
<path d="M19.8752 0.125V13.1458C19.8752 14.1128 19.491 15.0401 18.8073 15.7238C18.1236 16.4076 17.1963 16.7917 16.2293 16.7917C15.2624 16.7917 14.3351 16.4076 13.6513 15.7238C12.9676 15.0401 12.5835 14.1128 12.5835 13.1458C12.5835 12.1789 12.9676 11.2516 13.6513 10.5678C14.3351 9.88411 15.2624 9.5 16.2293 9.5C16.7918 9.5 17.3231 9.625 17.7918 9.85417V3.73958L7.37516 5.95833V15.2292C7.37516 16.1961 6.99105 17.1234 6.30732 17.8072C5.6236 18.4909 4.69626 18.875 3.72933 18.875C2.76239 18.875 1.83506 18.4909 1.15134 17.8072C0.46761 17.1234 0.0834961 16.1961 0.0834961 15.2292C0.0834961 14.2622 0.46761 13.3349 1.15134 12.6512C1.83506 11.9674 2.76239 11.5833 3.72933 11.5833C4.29183 11.5833 4.82308 11.7083 5.29183 11.9375V3.25L19.8752 0.125Z"/>
</svg>
