<svg width="38" height="38" viewBox="0 0 38 38" fill="#ff0c55" stroke="#ff0c55" xmlns="http://www.w3.org/2000/svg">
<path d="M4.41667 0.25H33.5833C34.6884 0.25 35.7482 0.688987 36.5296 1.47039C37.311 2.25179 37.75 3.3116 37.75 4.41667V33.5833C37.75 34.6884 37.311 35.7482 36.5296 36.5296C35.7482 37.311 34.6884 37.75 33.5833 37.75H4.41667C3.3116 37.75 2.25179 37.311 1.47039 36.5296C0.688987 35.7482 0.25 34.6884 0.25 33.5833V4.41667C0.25 3.3116 0.688987 2.25179 1.47039 1.47039C2.25179 0.688987 3.3116 0.25 4.41667 0.25ZM27.3333 27.3333L33.5833 10.6667H28.375L25.25 20.0417L22.125 10.6667H4.41667V14.8333H10.6667V27.3333H14.8333V14.8333H18.5208L23.1667 27.3333H27.3333Z"/>
</svg>
