<svg width="80" height="80" viewBox="0 0 80 80" fill="none" xmlns="http://www.w3.org/2000/svg">
<path d="M36.9411 2.75862C38.1318 0.127737 41.8682 0.127737 43.0589 2.75861C44.0538 4.95691 46.9735 5.41935 48.5991 3.6361C50.5445 1.50193 54.0979 2.65652 54.4174 5.52658C54.6843 7.92472 57.3182 9.26679 59.4153 8.07313C61.9249 6.64458 64.9477 8.84074 64.3646 11.669C63.8774 14.0323 65.9677 16.1226 68.331 15.6354C71.1593 15.0523 73.3554 18.075 71.9269 20.5847C70.7332 22.6818 72.0753 25.3157 74.4734 25.5826C77.3435 25.9021 78.4981 29.4555 76.3639 31.4009C74.5807 33.0265 75.0431 35.9462 77.2414 36.9411C79.8723 38.1318 79.8723 41.8682 77.2414 43.0589C75.0431 44.0538 74.5807 46.9735 76.3639 48.5991C78.4981 50.5445 77.3435 54.0979 74.4734 54.4174C72.0753 54.6843 70.7332 57.3182 71.9269 59.4153C73.3554 61.9249 71.1593 64.9477 68.331 64.3646C65.9677 63.8774 63.8774 65.9677 64.3646 68.331C64.9477 71.1593 61.9249 73.3554 59.4153 71.9269C57.3182 70.7332 54.6843 72.0753 54.4174 74.4734C54.0979 77.3435 50.5445 78.4981 48.5991 76.3639C46.9735 74.5807 44.0538 75.0431 43.0589 77.2414C41.8682 79.8723 38.1318 79.8723 36.9411 77.2414C35.9462 75.0431 33.0265 74.5807 31.4009 76.3639C29.4555 78.4981 25.9021 77.3435 25.5826 74.4734C25.3157 72.0753 22.6818 70.7332 20.5847 71.9269C18.075 73.3554 15.0523 71.1593 15.6354 68.331C16.1226 65.9677 14.0323 63.8774 11.669 64.3646C8.84074 64.9477 6.64458 61.9249 8.07313 59.4153C9.26679 57.3182 7.92472 54.6843 5.52658 54.4174C2.65652 54.0979 1.50193 50.5445 3.6361 48.5991C5.41935 46.9735 4.95691 44.0538 2.75862 43.0589C0.127737 41.8682 0.127737 38.1318 2.75861 36.9411C4.95691 35.9462 5.41935 33.0265 3.6361 31.4009C1.50193 29.4555 2.65652 25.9021 5.52658 25.5826C7.92472 25.3157 9.26679 22.6818 8.07313 20.5847C6.64458 18.075 8.84074 15.0523 11.669 15.6354C14.0323 16.1226 16.1226 14.0323 15.6354 11.669C15.0523 8.84074 18.075 6.64458 20.5847 8.07313C22.6818 9.26679 25.3157 7.92472 25.5826 5.52658C25.9021 2.65652 29.4555 1.50193 31.4009 3.6361C33.0265 5.41935 35.9462 4.95691 36.9411 2.75862Z" fill="#FF0C55"/>
</svg>
